<svg width="64" height="64" viewBox="0 0 64 64" fill="none" xmlns="http://www.w3.org/2000/svg">
<path d="M11.804 54.402L7.31201 4H56.688L52.19 54.394L31.97 60L11.804 54.402Z" fill="#1572B6"/>
<path d="M32 55.716L48.34 51.186L52.184 8.12195H32V55.716Z" fill="#33A9DC"/>
<path d="M32 26.382H40.18L40.744 20.052H32V13.87H32.022H47.5L47.352 15.528L45.834 32.564H32V26.382Z" fill="white"/>
<path d="M32.038 42.4361L32.01 42.4441L25.126 40.5841L24.686 35.6541H21.34H18.48L19.346 45.3601L32.008 48.8761L32.038 48.8681V42.4361Z" fill="#EBEBEB"/>
<path d="M39.654 32.302L38.91 40.58L32.016 42.44V48.872L44.688 45.36L44.782 44.316L45.856 32.302H39.654Z" fill="white"/>
<path d="M32.022 13.87V17.71V20.036V20.052H17.11H17.09L16.966 18.662L16.684 15.528L16.536 13.87H32.022Z" fill="#EBEBEB"/>
<path d="M32 26.382V30.222V32.548V32.564H25.222H25.202L25.078 31.174L24.798 28.04L24.65 26.382H32Z" fill="#EBEBEB"/>
</svg>
