<svg width="64" height="64" viewBox="0 0 64 64" fill="none" xmlns="http://www.w3.org/2000/svg">
<g clip-path="url(#clip0_135_785)">
<path d="M62.7931 29.1484L34.8498 1.20711C33.2417 -0.402371 30.6315 -0.402371 29.0213 1.20711L23.2189 7.00954L30.5796 14.3702C32.2902 13.7923 34.2515 14.1799 35.6152 15.5436C36.9852 16.9157 37.37 18.8939 36.778 20.6101L43.8719 27.7039C45.5881 27.1126 47.5683 27.4954 48.9391 28.8682C50.8547 30.7831 50.8547 33.8869 48.9391 35.8033C47.0227 37.7197 43.9189 37.7197 42.0019 35.8033C40.5609 34.3609 40.2049 32.2445 40.9345 30.4692L34.3189 23.8537L34.3182 41.263C34.7852 41.4948 35.2261 41.8031 35.6152 42.1907C37.5308 44.1056 37.5308 47.2094 35.6152 49.1272C33.6988 51.0428 30.5936 51.0428 28.6801 49.1272C26.7644 47.2094 26.7644 44.1056 28.6801 42.1907C29.1534 41.7181 29.7011 41.3607 30.2853 41.1205V23.5489C29.7011 23.3101 29.1541 22.9548 28.6801 22.4787C27.2286 21.0293 26.8796 18.8995 27.6232 17.1173L20.3679 9.86055L1.20788 29.0192C-0.402303 30.6301 -0.402303 33.2402 1.20788 34.8497L29.1513 62.7917C30.76 64.4011 33.3695 64.4011 34.9804 62.7917L62.7931 34.9796C64.4026 33.3694 64.4026 30.7579 62.7931 29.1484Z" fill="#DE4C36"/>
</g>
<defs>
<clipPath id="clip0_135_785">
<rect width="64" height="64" fill="white"/>
</clipPath>
</defs>
</svg>
