<svg width="64" height="64" viewBox="0 0 64 64" fill="none" xmlns="http://www.w3.org/2000/svg">
<g clip-path="url(#clip0_135_782)">
<path d="M32.0003 0.75C14.3293 0.75 0 15.0767 0 32.7503C0 46.8888 9.16905 58.8839 21.8837 63.1152C23.483 63.4114 24.0701 62.421 24.0701 61.5758C24.0701 60.8128 24.0405 58.292 24.0267 55.618C15.1242 57.5538 13.2457 51.8424 13.2457 51.8424C11.79 48.1436 9.6926 47.1601 9.6926 47.1601C6.78922 45.174 9.91146 45.2148 9.91146 45.2148C13.1248 45.4406 14.8168 48.5125 14.8168 48.5125C17.6709 53.4046 22.3029 51.9903 24.129 51.1726C24.4162 49.1044 25.2455 47.6927 26.1606 46.8936C19.053 46.0844 11.5812 43.3405 11.5812 31.0789C11.5812 27.5852 12.8313 24.7306 14.8783 22.4896C14.5461 21.6836 13.4507 18.4289 15.1883 14.0211C15.1883 14.0211 17.8755 13.161 23.9907 17.3012C26.5432 16.5922 29.2808 16.2366 32.0003 16.2245C34.7198 16.2366 37.4594 16.5922 40.0168 17.3012C46.1245 13.161 48.808 14.0211 48.808 14.0211C50.5498 18.4289 49.4539 21.6836 49.1217 22.4896C51.1735 24.7306 52.4151 27.5852 52.4151 31.0789C52.4151 43.3697 44.929 46.0759 37.8033 46.8682C38.9511 47.8612 39.9738 49.8086 39.9738 52.7941C39.9738 57.0758 39.9367 60.5218 39.9367 61.5758C39.9367 62.4274 40.5128 63.4252 42.1348 63.111C54.8426 58.8749 64 46.884 64 32.7503C64 15.0767 49.6728 0.75 32.0003 0.75ZM11.9851 46.3351C11.9147 46.494 11.6645 46.5417 11.4367 46.4326C11.2046 46.3282 11.0742 46.1114 11.1495 45.9519C11.2184 45.7882 11.469 45.7426 11.7006 45.8523C11.9332 45.9567 12.0657 46.1755 11.9851 46.3351ZM13.5592 47.7396C13.4066 47.881 13.1082 47.8153 12.9058 47.5917C12.6965 47.3686 12.6573 47.0703 12.812 46.9267C12.9694 46.7852 13.2587 46.8514 13.4686 47.0745C13.6779 47.3003 13.7187 47.5965 13.5592 47.7396ZM14.6391 49.5366C14.443 49.6728 14.1224 49.5451 13.9242 49.2605C13.7281 48.9759 13.7281 48.6347 13.9284 48.498C14.1272 48.3612 14.443 48.4842 14.6438 48.7666C14.8394 49.056 14.8394 49.3972 14.6391 49.5366ZM16.4653 51.6178C16.2899 51.8112 15.9164 51.7593 15.6429 51.4954C15.3631 51.2373 15.2852 50.8711 15.4612 50.6777C15.6387 50.4838 16.0144 50.5384 16.2899 50.8001C16.5676 51.0577 16.6524 51.4265 16.4653 51.6178ZM18.8256 52.3204C18.7483 52.571 18.3885 52.685 18.026 52.5785C17.6641 52.4688 17.4272 52.1752 17.5003 51.9219C17.5756 51.6697 17.937 51.551 18.3021 51.6649C18.6635 51.774 18.9009 52.0655 18.8256 52.3204ZM21.5117 52.6184C21.5207 52.8823 21.2134 53.1012 20.8329 53.1059C20.4503 53.1144 20.1409 52.9008 20.1366 52.6412C20.1366 52.3746 20.4371 52.1579 20.8197 52.1516C21.2001 52.1441 21.5117 52.3561 21.5117 52.6184ZM24.1505 52.5173C24.1961 52.7748 23.9317 53.0392 23.5539 53.1097C23.1824 53.1775 22.8385 53.0186 22.7913 52.7631C22.7452 52.4992 23.0144 52.2348 23.3853 52.1665C23.7637 52.1007 24.1023 52.2555 24.1505 52.5173Z" fill="#161614"/>
</g>
<defs>
<clipPath id="clip0_135_782">
<rect width="64" height="64" fill="white"/>
</clipPath>
</defs>
</svg>
