<svg width="64" height="64" viewBox="0 0 64 64" fill="none" xmlns="http://www.w3.org/2000/svg">
<g clip-path="url(#clip0_135_797)">
<path fill-rule="evenodd" clip-rule="evenodd" d="M0 32C0 14.3269 14.3269 0 32 0C49.673 0 64 14.3269 64 32C64 43.0379 58.4115 52.7706 49.9093 58.5229L20.936 17.9602C20.3969 17.2055 19.4321 16.8856 18.549 17.1686C17.6658 17.4516 17.0667 18.2728 17.0667 19.2002V51.2H21.3333V25.8572L46.2076 60.681C41.9269 62.8058 37.1029 64 32 64C14.3269 64 0 49.673 0 32ZM42.6667 42.6667V17.0667H46.9333V42.6667H42.6667Z" fill="black"/>
</g>
<defs>
<clipPath id="clip0_135_797">
<rect width="64" height="64" fill="white"/>
</clipPath>
</defs>
</svg>
