<svg width="64" height="64" viewBox="0 0 64 64" fill="none" xmlns="http://www.w3.org/2000/svg">
<g clip-path="url(#clip0_135_799)">
<path d="M19.2 19.2L20.9295 17.9509C20.3877 17.2008 19.4241 16.8855 18.5437 17.1701C17.6632 17.4548 17.0667 18.2747 17.0667 19.2H19.2ZM32 59.7333C16.6833 59.7333 4.26667 47.3169 4.26667 32H0C0 49.673 14.3269 64 32 64V59.7333ZM59.7333 32C59.7333 47.3169 47.3169 59.7333 32 59.7333V64C49.673 64 64 49.673 64 32H59.7333ZM32 4.26667C47.3169 4.26667 59.7333 16.6833 59.7333 32H64C64 14.3269 49.673 0 32 0V4.26667ZM32 0C14.3269 0 0 14.3269 0 32H4.26667C4.26667 16.6833 16.6833 4.26667 32 4.26667V0ZM21.3333 51.2V19.2H17.0667V51.2H21.3333ZM17.4705 20.4491L45.2041 58.8489L48.6626 56.3512L20.9295 17.9509L17.4705 20.4491ZM42.6667 17.0667V42.6667H46.9333V17.0667H42.6667Z" fill="black"/>
</g>
<defs>
<clipPath id="clip0_135_799">
<rect width="64" height="64" fill="white"/>
</clipPath>
</defs>
</svg>
