<svg width="64" height="64" viewBox="0 0 64 64" fill="none" xmlns="http://www.w3.org/2000/svg">
<path d="M62.7898 38.3238C62.4177 37.1969 61.443 36.4119 60.1823 36.2235C59.5879 36.1347 58.9071 36.1726 58.1016 36.3387C56.6976 36.6284 55.6559 36.7386 54.8957 36.7601C57.7651 31.9152 60.0984 26.3902 61.4417 21.1895C63.6137 12.7802 62.453 8.94918 61.0967 7.21621C57.5072 2.62975 52.2702 0.16567 45.9519 0.0901365C42.5817 0.0490017 39.6227 0.714469 38.0794 1.19289C36.6422 0.939493 35.0969 0.797885 33.4754 0.771657C30.4365 0.723212 27.7511 1.38567 25.4566 2.74728C24.186 2.31787 22.1474 1.71231 19.793 1.32576C14.2554 0.416635 9.7925 1.1251 6.52809 3.43123C2.57513 6.22353 0.742549 11.0749 1.08152 17.8506C1.18901 20.002 2.39253 26.5473 4.28731 32.7549C5.37631 36.3228 6.53755 39.2858 7.73877 41.5621C9.44221 44.79 11.2649 46.6909 13.3112 47.3734C14.4582 47.7557 16.5421 48.0231 18.734 46.198C19.0117 46.5343 19.3822 46.8686 19.8743 47.1791C20.4989 47.5731 21.2628 47.895 22.0256 48.0858C24.775 48.7732 27.3503 48.6012 29.5474 47.6379C29.5609 48.0286 29.5713 48.402 29.5802 48.7243C29.5949 49.2473 29.6092 49.76 29.6284 50.2394C29.7585 53.4817 29.9791 56.0027 30.6327 57.7665C30.6685 57.8637 30.7168 58.0115 30.7678 58.1681C31.0938 59.1665 31.6391 60.8377 33.0261 62.1467C34.4627 63.5025 36.2001 63.9184 37.7913 63.9182C38.5893 63.9182 39.3508 63.8136 40.0186 63.6704C42.3994 63.1603 45.1031 62.3829 47.059 59.5981C48.908 56.9653 49.807 53 49.9696 46.7518C49.9907 46.5753 50.0102 46.4066 50.029 46.2457C50.0416 46.1372 50.0545 46.0263 50.0675 45.9157L50.5033 45.9539L50.6155 45.9615C53.0403 46.072 56.0051 45.5578 57.826 44.712C59.2648 44.0442 63.8754 41.6103 62.7898 38.3238Z" fill="black"/>
<path d="M58.6438 38.963C51.4342 40.4502 50.9385 38.0092 50.9385 38.0092C58.5508 26.7138 61.7329 12.3761 58.9868 8.86704C51.4951 -0.705055 38.5266 3.82193 38.3101 3.93946L38.2405 3.95193C36.8161 3.65624 35.222 3.48009 33.4304 3.45086C30.1682 3.39739 27.6936 4.30609 25.8159 5.73004C25.8159 5.73004 2.68133 -3.80049 3.75729 17.7165C3.98618 22.2941 10.3182 52.3525 17.8708 43.2734C20.6313 39.9535 23.2985 37.1465 23.2985 37.1465C24.6233 38.0265 26.2092 38.4754 27.8718 38.3142L28.0009 38.2045C27.9608 38.6167 27.9791 39.0199 28.0527 39.4972C26.107 41.671 26.6787 42.0527 22.7893 42.8533C18.8536 43.6644 21.1656 45.1084 22.6752 45.4858C24.5052 45.9434 28.7389 46.5917 31.5996 42.5872L31.4855 43.0441C32.2478 43.6547 32.7832 47.0158 32.6934 50.0627C32.6037 53.1097 32.5438 55.2015 33.1445 56.8354C33.7452 58.4694 34.3438 62.1457 39.4569 61.0501C43.7293 60.1345 45.9433 57.7619 46.2513 53.8042C46.4699 50.9906 46.9645 51.4065 46.9958 48.891L47.3925 47.7001C47.85 43.886 47.4651 42.6555 50.0973 43.2278L50.737 43.284C52.6744 43.3722 55.21 42.9724 56.6981 42.2807C59.9026 40.7936 61.8032 38.3106 58.6435 38.963H58.6438Z" fill="#336791"/>
<path d="M27.17 19.7637C26.5205 19.6732 25.932 19.7569 25.6343 19.9822C25.4667 20.1091 25.415 20.256 25.4011 20.3572C25.3637 20.6251 25.5514 20.9212 25.6667 21.074C25.9929 21.5064 26.4696 21.8036 26.9414 21.8691C27.0098 21.8786 27.0777 21.8832 27.1454 21.8832C27.9322 21.8832 28.6474 21.2706 28.7105 20.8184C28.7893 20.2521 27.9672 19.8746 27.17 19.7637Z" fill="white"/>
<path d="M48.6934 19.7815C48.6315 19.3377 47.8414 19.2111 47.0918 19.3153C46.3433 19.4196 45.6174 19.7575 45.678 20.2023C45.7267 20.5483 46.3512 21.139 47.0908 21.1388C47.1531 21.1388 47.2162 21.1347 47.2797 21.1258C47.7733 21.0574 48.1355 20.744 48.3075 20.5632C48.5696 20.2881 48.7211 19.9811 48.6934 19.7815Z" fill="white"/>
<path d="M61.043 38.794C60.7681 37.9627 59.8833 37.6951 58.4132 37.9988C54.0483 38.8996 52.4852 38.2756 51.9718 37.8976C55.3646 32.729 58.1556 26.4815 59.6613 20.6522C60.3746 17.891 60.7686 15.3268 60.8007 13.2368C60.8363 10.9424 60.4457 9.25674 59.6398 8.22693C56.3907 4.07532 51.6224 1.84845 45.8502 1.78725C41.882 1.74268 38.5293 2.75829 37.8793 3.0438C36.5105 2.7034 35.0184 2.49443 33.394 2.46777C30.415 2.41961 27.8401 3.1328 25.7081 4.58643C24.7821 4.24187 22.3888 3.42032 19.4622 2.94892C14.4022 2.1341 10.3814 2.75141 7.51204 4.78422C4.08824 7.20989 2.50763 11.5458 2.81392 17.6713C2.91698 19.7324 4.09111 26.0722 5.94433 32.1438C8.38361 40.135 11.035 44.6589 13.825 45.5894C14.1515 45.6984 14.5282 45.7746 14.9433 45.7746C15.961 45.7746 17.2087 45.3158 18.5069 43.7551C20.6633 41.1609 22.6766 38.9871 23.4188 38.1972C24.5155 38.786 25.7202 39.1146 26.9526 39.1476C26.9548 39.1798 26.9581 39.2121 26.9609 39.2442C26.7137 39.5374 26.5109 39.7944 26.338 40.0139C25.4842 41.0977 25.3065 41.3233 22.5581 41.8893C21.7764 42.0505 19.6997 42.4785 19.6695 43.934C19.6364 45.5242 22.1238 46.1921 22.4073 46.2629C23.395 46.5102 24.3464 46.6321 25.2538 46.6321C27.4607 46.632 29.4027 45.9067 30.9548 44.5034C30.9069 50.1727 31.1434 55.7592 31.824 57.4613C32.3814 58.8546 33.7435 62.2601 38.0457 62.2598C38.6768 62.2598 39.3718 62.1864 40.1361 62.0226C44.626 61.0599 46.5757 59.0755 47.33 54.7006C47.7336 52.3625 48.4263 46.779 48.752 43.7842C49.4395 43.9986 50.3247 44.0968 51.2815 44.0967C53.2772 44.0967 55.5799 43.6727 57.0241 43.0024C58.6463 42.249 61.5739 40.4001 61.043 38.794ZM50.3506 18.5562C50.3357 19.4404 50.214 20.243 50.085 21.0809C49.9463 21.982 49.8027 22.9137 49.7666 24.0446C49.7309 25.1453 49.8683 26.2896 50.0013 27.3961C50.2699 29.6311 50.5456 31.9322 49.4785 34.2028C49.3127 33.9083 49.1526 33.5869 49.0058 33.2311C48.8732 32.9096 48.5853 32.3932 48.1867 31.6784C46.6353 28.8964 43.0025 22.3816 44.8622 19.7232C45.416 18.9317 46.8218 18.1184 50.3506 18.5562ZM46.0733 3.57769C51.2451 3.69192 55.3361 5.62669 58.2328 9.32797C60.4543 12.167 58.008 25.0851 50.9261 36.2295C50.8561 36.1406 50.7849 36.0509 50.7112 35.9588C50.6819 35.922 50.6519 35.8846 50.6217 35.8468C52.4517 32.8244 52.0938 29.8342 51.7753 27.1829C51.6444 26.0949 51.5209 25.0673 51.5523 24.1021C51.5848 23.0788 51.7201 22.2015 51.8508 21.353C52.0118 20.3073 52.1753 19.2254 52.1302 17.95C52.1639 17.8162 52.1775 17.6581 52.1598 17.4705C52.0446 16.2474 50.6483 12.5872 47.8021 9.27394C46.2455 7.462 43.975 5.43406 40.8751 4.06629C42.2085 3.78996 44.0319 3.53226 46.0733 3.57769ZM17.1332 42.6128C15.7029 44.3324 14.7151 44.0029 14.3903 43.8947C12.2738 43.1887 9.81817 38.7156 7.65307 31.6222C5.77965 25.4845 4.68477 19.3127 4.5982 17.582C4.32459 12.1087 5.65137 8.29401 8.54184 6.24415C13.2458 2.90821 20.9798 4.9049 24.0874 5.91765C24.0427 5.96165 23.9962 6.00293 23.9519 6.04765C18.8525 11.1978 18.9735 19.997 18.9859 20.5347C18.9855 20.7423 19.0029 21.0361 19.0268 21.4403C19.1145 22.9201 19.2778 25.6746 18.8416 28.7939C18.4361 31.6926 19.3296 34.5297 21.2926 36.5779C21.4959 36.7899 21.708 36.9889 21.9272 37.1763C21.0533 38.1121 19.1544 40.1813 17.1332 42.6128ZM22.5826 35.3417C21.0004 33.691 20.2819 31.3947 20.611 29.0413C21.0716 25.7461 20.9015 22.8762 20.8102 21.3345C20.7975 21.1188 20.7861 20.9297 20.7794 20.7805C21.5244 20.1201 24.9767 18.2701 27.4387 18.8343C28.5623 19.0917 29.2467 19.8566 29.5314 21.1727C31.0045 27.9854 29.7264 30.825 28.6995 33.1068C28.4878 33.5769 28.2879 34.0212 28.117 34.481L27.9847 34.8363C27.6496 35.7348 27.3379 36.5701 27.1447 37.3635C25.4629 37.3583 23.8267 36.6399 22.5826 35.3417ZM22.8407 44.5297C22.3497 44.407 21.9079 44.1938 21.6488 44.0171C21.8652 43.9152 22.2505 43.7768 22.9185 43.6392C26.1519 42.9734 26.6511 42.5037 27.7415 41.1192C27.9916 40.8019 28.275 40.442 28.6674 40.0037L28.6678 40.0031C29.2525 39.3487 29.5198 39.4596 30.0046 39.6607C30.3976 39.8234 30.7803 40.3158 30.9355 40.8579C31.0089 41.1139 31.0915 41.5999 30.8216 41.9779C28.5437 45.1672 25.2245 45.1262 22.8407 44.5297ZM39.7616 60.2757C35.8062 61.1232 34.4058 59.105 33.4829 56.7979C32.8872 55.3083 32.5946 48.5916 32.8022 41.1742C32.805 41.0755 32.7909 40.9802 32.7637 40.8906C32.74 40.7176 32.7036 40.5426 32.6532 40.3664C32.3442 39.2872 31.5916 38.3844 30.6886 38.0101C30.3298 37.8615 29.6713 37.5888 28.88 37.7911C29.0488 37.0959 29.3415 36.3109 29.6586 35.4606L29.7918 35.1029C29.9417 34.6997 30.1296 34.2821 30.3286 33.84C31.4032 31.4525 32.875 28.1825 31.2777 20.795C30.6793 18.0281 28.6813 16.6769 25.6524 16.9907C23.8364 17.1786 22.1753 17.9113 21.3467 18.3313C21.1685 18.4216 21.0056 18.5088 20.8534 18.5938C21.0845 15.8058 21.9584 10.5957 25.2268 7.29932C27.2846 5.22395 30.0253 4.19901 33.3645 4.2542C39.9439 4.36198 44.1631 7.73848 46.5441 10.5521C48.5959 12.9768 49.7069 15.4191 50.1504 16.7363C46.8159 16.3973 44.548 17.0556 43.3983 18.6991C40.8972 22.2743 44.7666 29.2136 46.6263 32.5485C46.9672 33.1598 47.2616 33.688 47.3542 33.9124C47.9598 35.3801 48.7438 36.3599 49.3162 37.0752C49.4917 37.2944 49.6619 37.5069 49.7914 37.6925C48.7815 37.9838 46.9674 38.6564 47.1326 42.019C46.9994 43.7064 46.0511 51.606 45.5695 54.397C44.9337 58.0842 43.5768 59.4577 39.7616 60.2757ZM56.2718 41.3819C55.2391 41.8613 53.5108 42.2209 51.869 42.2981C50.0557 42.3831 49.1326 42.095 48.9155 41.9178C48.8134 39.8224 49.5936 39.6034 50.419 39.3716C50.5487 39.3351 50.6753 39.2997 50.7974 39.2569C50.8733 39.3187 50.9565 39.3801 51.0475 39.4401C52.505 40.4021 55.1046 40.5059 58.7745 39.7484C58.788 39.7456 58.8015 39.743 58.8148 39.7402C58.3199 40.203 57.4728 40.8242 56.2718 41.3819Z" fill="white"/>
</svg>
