<svg width="64" height="64" viewBox="0 0 64 64" fill="none" xmlns="http://www.w3.org/2000/svg">
<g clip-path="url(#clip0_135_810)">
<path d="M63.7383 36.0633C65.9779 18.5304 53.5961 2.50132 36.0953 0.26172C18.5944 -1.97788 2.50132 10.4039 0.26172 27.9047C-1.97788 45.4056 10.4039 61.4667 27.9047 63.7383C45.4376 65.9779 61.4667 53.5961 63.7383 36.0633Z" fill="#FF6C37"/>
<path d="M43.5498 20.5461L30.0483 34.0476L26.241 30.2403C39.5186 16.9627 40.8303 18.1145 43.5498 20.5461Z" fill="white"/>
<path d="M30.0483 34.3676C29.9523 34.3676 29.8883 34.3356 29.8243 34.2716L25.985 30.4643C25.857 30.3363 25.857 30.1443 25.985 30.0164C39.4866 16.5148 40.8943 17.7946 43.7418 20.3541C43.8058 20.4181 43.8378 20.4821 43.8378 20.5781C43.8378 20.674 43.8058 20.738 43.7418 20.802L30.2403 34.2716C30.2083 34.3356 30.1123 34.3676 30.0483 34.3676ZM26.6889 30.2403L30.0483 33.5997L43.0699 20.5781C40.7024 18.4664 39.1027 17.8265 26.6889 30.2403Z" fill="#FF6C37"/>
<path d="M33.9197 37.9189L30.2404 34.2396L43.7419 20.738C47.3573 24.3854 41.9502 30.3043 33.9197 37.9189Z" fill="white"/>
<path d="M33.9197 38.2389C33.8237 38.2389 33.7597 38.2069 33.6957 38.1429L30.0164 34.4636C29.9524 34.3996 29.9524 34.3356 29.9524 34.2396C29.9524 34.1436 29.9844 34.0796 30.0484 34.0156L43.5499 20.5141C43.6779 20.3861 43.8699 20.3861 43.9979 20.5141C44.8297 21.2819 45.2776 22.3697 45.2456 23.4895C45.1816 27.0409 41.1504 31.5521 34.1756 38.1429C34.0796 38.2069 33.9837 38.2389 33.9197 38.2389ZM30.6883 34.2396C32.7359 36.3192 33.5997 37.1511 33.9197 37.471C39.2947 32.3519 44.5098 27.1049 44.5418 23.4895C44.5738 22.6577 44.2538 21.8258 43.7099 21.186L30.6883 34.2396Z" fill="#FF6C37"/>
<path d="M26.3051 30.3363L29.0246 33.0558C29.0886 33.1198 29.0886 33.1838 29.0246 33.2478C28.9926 33.2798 28.9926 33.2798 28.9606 33.2798L23.3296 34.4956C23.0416 34.5276 22.7857 34.3356 22.7217 34.0477C22.6897 33.8877 22.7537 33.7277 22.8497 33.6317L26.1131 30.3683C26.1771 30.3043 26.2731 30.2723 26.3051 30.3363Z" fill="white"/>
<path d="M23.2336 34.8155C22.7537 34.8155 22.4017 34.4316 22.4017 33.9517C22.4017 33.7277 22.4977 33.5038 22.6577 33.3438L25.9211 30.0804C26.1131 29.9204 26.369 29.9204 26.561 30.0804L29.2805 32.7999C29.4725 32.9598 29.4725 33.2478 29.2805 33.4398C29.2165 33.5037 29.1525 33.5357 29.0565 33.5677L23.4255 34.7835C23.3616 34.7835 23.2976 34.8155 23.2336 34.8155ZM26.209 30.6883L23.0736 33.8237C23.0096 33.8877 22.9776 33.9837 23.0416 34.0796C23.0736 34.1756 23.1696 34.2076 23.2656 34.1756L28.5446 33.0238L26.209 30.6883Z" fill="#FF6C37"/>
<path d="M50.6847 13.0594C48.637 11.0758 45.3416 11.1397 43.358 13.2194C41.3743 15.299 41.4383 18.5624 43.518 20.546C45.2136 22.1778 47.7732 22.4657 49.7888 21.2499L46.1415 17.6026L50.6847 13.0594Z" fill="white"/>
<path d="M47.1013 22.3058C44.0618 22.3058 41.5983 19.8422 41.5983 16.8028C41.5983 13.7633 44.0618 11.2997 47.1013 11.2997C48.509 11.2997 49.8848 11.8436 50.9086 12.8355C50.9726 12.8995 51.0046 12.9634 51.0046 13.0594C51.0046 13.1554 50.9726 13.2194 50.9086 13.2834L46.5894 17.6026L49.9808 20.994C50.1087 21.122 50.1087 21.3139 49.9808 21.4419C49.9488 21.4739 49.9488 21.4739 49.9168 21.5059C49.0849 22.0178 48.0931 22.3058 47.1013 22.3058ZM47.1013 11.9716C44.4138 11.9716 42.2382 14.1472 42.2701 16.8347C42.2701 19.5223 44.4458 21.6979 47.1333 21.6659C47.8691 21.6659 48.605 21.5059 49.2769 21.154L45.9175 17.8266C45.8535 17.7626 45.8215 17.6986 45.8215 17.6026C45.8215 17.5066 45.8535 17.4426 45.9175 17.3786L50.2047 13.0914C49.3409 12.3556 48.2531 11.9716 47.1013 11.9716Z" fill="#FF6C37"/>
<path d="M50.7806 13.1554L50.7167 13.0914L46.1415 17.6026L49.7568 21.218C50.1088 20.994 50.4607 20.7381 50.7486 20.4501C52.7963 18.4345 52.7963 15.1711 50.7806 13.1554Z" fill="white"/>
<path d="M49.7888 21.5699C49.6928 21.5699 49.6288 21.5379 49.5649 21.4739L45.9175 17.8266C45.8535 17.7626 45.8215 17.6986 45.8215 17.6026C45.8215 17.5066 45.8535 17.4427 45.9175 17.3787L50.4607 12.8355C50.5887 12.7075 50.7806 12.7075 50.9086 12.8355L51.0046 12.8995C53.1482 15.0431 53.1482 18.4985 51.0366 20.6741C50.7167 20.994 50.3647 21.282 49.9808 21.5059C49.8848 21.5379 49.8208 21.5699 49.7888 21.5699ZM46.5894 17.6026L49.8208 20.834C50.0768 20.6741 50.3327 20.4501 50.5247 20.2581C52.3484 18.4345 52.4443 15.459 50.6847 13.5394L46.5894 17.6026Z" fill="#FF6C37"/>
<path d="M44.0939 21.122C43.326 20.3541 42.0782 20.3541 41.3104 21.122L29.2485 33.1838L31.2642 35.1994L44.0299 24.0015C44.8617 23.2976 44.9257 22.0498 44.2218 21.218C44.1578 21.186 44.1259 21.154 44.0939 21.122Z" fill="white"/>
<path d="M31.2321 35.5194C31.1361 35.5194 31.0721 35.4874 31.0081 35.4234L28.9925 33.4078C28.8645 33.2798 28.8645 33.0878 28.9925 32.9598L41.0543 20.898C41.9501 20.0022 43.3899 20.0022 44.2857 20.898C45.1816 21.7939 45.1816 23.2336 44.2857 24.1294C44.2537 24.1614 44.2217 24.1934 44.1897 24.2254L31.424 35.4234C31.392 35.4874 31.328 35.5194 31.2321 35.5194ZM29.6963 33.1838L31.2641 34.7515L43.8058 23.7455C44.5097 23.1696 44.5737 22.1138 43.9978 21.4099C43.4219 20.706 42.3661 20.6421 41.6622 21.218C41.6302 21.2499 41.5982 21.2819 41.5342 21.3139L29.6963 33.1838Z" fill="#FF6C37"/>
<path d="M20.0022 46.9093C19.8742 46.9733 19.8102 47.1013 19.8422 47.2292L20.3861 49.5328C20.5141 49.8528 20.3221 50.2367 19.9702 50.3327C19.7142 50.4287 19.4263 50.3327 19.2663 50.1407L15.7469 46.6533L27.2329 35.1674L31.2002 35.2314L33.8877 37.9189C33.2478 38.4628 29.3765 42.2062 20.0022 46.9093Z" fill="white"/>
<path d="M19.7462 50.6526C19.4902 50.6526 19.2343 50.5566 19.0743 50.3647L15.5869 46.8773C15.523 46.8133 15.491 46.7493 15.491 46.6533C15.491 46.5574 15.523 46.4934 15.5869 46.4294L27.0729 34.9435C27.1369 34.8795 27.2329 34.8475 27.2968 34.8475L31.2641 34.9115C31.3601 34.9115 31.4241 34.9435 31.4881 35.0074L34.1756 37.695C34.2396 37.7589 34.2716 37.8549 34.2716 37.9509C34.2716 38.0469 34.2396 38.1109 34.1436 38.1749L33.9196 38.3668C30.5283 41.3423 25.9211 44.3178 20.1941 47.1653L20.738 49.4368C20.834 49.8528 20.642 50.3007 20.2581 50.5246C20.0661 50.6206 19.9062 50.6526 19.7462 50.6526ZM16.2268 46.6533L19.5222 49.9168C19.6182 50.0767 19.8102 50.1407 19.9702 50.0447C20.1301 49.9488 20.1941 49.7568 20.0981 49.5968L19.5542 47.2932C19.4902 47.0053 19.6182 46.7493 19.8742 46.6213C25.5372 43.7739 30.1123 40.8304 33.4717 37.9189L31.1042 35.5513L27.4248 35.4874L16.2268 46.6533Z" fill="#FF6C37"/>
<path d="M13.0274 49.4049L15.779 46.6534L19.8742 50.7486L13.3474 50.3007C13.0594 50.2687 12.8675 50.0128 12.8995 49.7248C12.8995 49.5969 12.9315 49.4689 13.0274 49.4049Z" fill="white"/>
<path d="M19.8742 51.0366L13.3153 50.5887C12.8354 50.5567 12.5155 50.1408 12.5475 49.6608C12.5795 49.4689 12.6435 49.2769 12.8034 49.1489L15.5549 46.3974C15.6829 46.2695 15.8749 46.2695 16.0029 46.3974L20.0981 50.4927C20.1941 50.5887 20.2261 50.7167 20.1621 50.8446C20.0981 50.9726 20.0021 51.0366 19.8742 51.0366ZM15.7789 47.1013L13.2514 49.6288C13.1554 49.6928 13.1554 49.8528 13.2514 49.9168C13.2834 49.9488 13.3153 49.9808 13.3793 49.9808L19.0423 50.3647L15.7789 47.1013Z" fill="#FF6C37"/>
<path d="M26.113 36.6392C25.9211 36.6392 25.7931 36.4792 25.7931 36.3193C25.7931 36.2233 25.8251 36.1593 25.8891 36.0953L28.9925 32.9919C29.1205 32.8639 29.3125 32.8639 29.4404 32.9919L31.4561 35.0075C31.5521 35.1035 31.584 35.1995 31.5521 35.3274C31.5201 35.4234 31.4241 35.5194 31.2961 35.5514L26.177 36.6392C26.145 36.6392 26.113 36.6392 26.113 36.6392ZM29.2165 33.6637L27.1049 35.7754L30.5602 35.0395L29.2165 33.6637Z" fill="#FF6C37"/>
<path d="M31.2002 35.2314L27.6808 35.9993C27.4249 36.0633 27.1689 35.9033 27.1049 35.6474C27.0729 35.4874 27.1049 35.3274 27.2329 35.1995L29.1845 33.2478L31.2002 35.2314Z" fill="white"/>
<path d="M27.6167 36.3193C27.1688 36.3193 26.8169 35.9673 26.8169 35.5194C26.8169 35.2954 26.9129 35.1035 27.0409 34.9435L28.9925 32.9919C29.1205 32.8639 29.3124 32.8639 29.4404 32.9919L31.4561 35.0075C31.552 35.1035 31.584 35.1995 31.552 35.3274C31.52 35.4234 31.4241 35.5194 31.2961 35.5514L27.7767 36.3193C27.7127 36.3193 27.6487 36.3193 27.6167 36.3193ZM29.2165 33.6637L27.4888 35.3914C27.4248 35.4554 27.4248 35.5194 27.4568 35.5834C27.4888 35.6474 27.5528 35.6794 27.6487 35.6794L30.5922 35.0395L29.2165 33.6637Z" fill="#FF6C37"/>
<path d="M50.8126 16.2269C50.7486 16.0349 50.5247 15.9389 50.3327 16.0029C50.1407 16.0669 50.0447 16.2908 50.1087 16.4828C50.1087 16.5148 50.1407 16.5468 50.1407 16.5788C50.3327 16.9627 50.2687 17.4426 50.0127 17.7946C49.8848 17.9545 49.9168 18.1785 50.0447 18.3065C50.2047 18.4345 50.4287 18.4025 50.5566 18.2425C51.0366 17.6346 51.1325 16.8667 50.8126 16.2269Z" fill="#FF6C37"/>
</g>
<defs>
<clipPath id="clip0_135_810">
<rect width="64" height="64" fill="white"/>
</clipPath>
</defs>
</svg>
