<svg width="64" height="64" viewBox="0 0 64 64" fill="none" xmlns="http://www.w3.org/2000/svg">
<path d="M27.3894 39.5792C27.3894 39.5792 30.2106 39.3374 30.2106 35.6941C30.2106 32.0508 26.793 31.7122 26.793 31.7122H20.6348V43.2064H23.73V40.4336L26.4061 43.2064H30.9844L27.3894 39.5792ZM26.1965 37.2256H23.73V34.5979H26.2126C26.2126 34.5979 26.9058 34.8558 26.9058 35.9037C26.9058 36.9515 26.1965 37.2256 26.1965 37.2256ZM37.8519 31.7928H34.7083C32.4675 31.7928 31.7098 33.8241 31.7098 34.7913V43.2064H34.8534V41.1913H37.8035V43.2064H40.8504V34.7913C40.8504 32.3409 38.6257 31.7928 37.8519 31.7928ZM37.8035 37.9349H34.8373V35.146C34.8373 35.146 34.8373 34.5173 35.8207 34.5173H36.9008C37.7713 34.5173 37.7874 35.146 37.7874 35.146V37.9349H37.8035ZM42.2851 31.7928H45.5577V43.2064H42.2851V31.7928ZM50.1521 40.2563V31.7928H46.8957V40.2563V43.2064H50.1521H54.5532V40.2563H50.1521ZM55.6333 40.2885V43.2064H60.9048C61.9849 43.2064 63.8388 42.4165 63.9033 40.2079V39.0795C63.9033 37.1933 62.3557 36.081 60.9048 36.081H58.2771V34.7268H63.4841V31.7928H58.4867C57.197 31.7928 55.472 32.8568 55.472 34.8397V35.8553C55.472 37.8382 57.1809 38.8538 58.4867 38.8538C62.1139 38.8699 57.6161 38.8538 60.9693 38.8538V40.2724L55.6333 40.2885Z" fill="#CC0000"/>
<path d="M1.12846 43.1903H13.864C13.864 43.1903 11.4297 32.083 19.4902 27.5853C21.2474 26.7309 26.8413 23.5389 35.998 30.3097C36.2882 30.0679 36.5622 29.8744 36.5622 29.8744C36.5622 29.8744 28.1793 21.5077 18.8453 22.4427C14.1542 22.8618 8.38287 27.1339 4.99748 32.7762C1.61209 38.4185 1.12846 43.1903 1.12846 43.1903ZM27.6635 23.3455L27.728 22.2654C27.5829 22.1848 27.1798 21.9913 26.1642 21.7011L26.0997 22.7651C26.6317 22.9424 27.1476 23.1359 27.6635 23.3455ZM26.132 26.7631L26.0675 27.7787C26.5995 27.7948 27.1315 27.8593 27.6635 27.9722L27.728 26.9727C27.1798 26.8598 26.6479 26.7953 26.132 26.7631ZM20.1673 21.7334H20.3285L20.006 20.75C19.5063 20.75 18.9904 20.7822 18.4584 20.8467L18.7647 21.7979C19.2322 21.7495 19.6997 21.7334 20.1673 21.7334ZM20.9411 27.6659L21.3118 28.7782C21.7793 28.5525 22.2469 28.3591 22.7144 28.214L22.3597 27.15C21.8116 27.3112 21.3441 27.4885 20.9411 27.6659ZM13.6222 23.4261L12.8967 22.3137C12.4937 22.5233 12.0746 22.749 11.6393 23.0069L12.3809 24.1354C12.8 23.8775 13.203 23.6356 13.6222 23.4261ZM16.927 30.6805L17.7008 31.8412C17.9748 31.4382 18.2972 31.0674 18.6519 30.6966L17.9264 29.6004C17.5557 29.9389 17.2171 30.3097 16.927 30.6805ZM14.5894 35.8714L15.8952 36.9031C15.9597 36.2744 16.0725 35.6457 16.2338 35.017L15.073 34.0981C14.8635 34.6946 14.7184 35.2911 14.5894 35.8714ZM7.52846 28.214L6.38388 27.2145C5.96474 27.6175 5.56171 28.0205 5.19093 28.4236L6.43224 29.4875C6.77078 29.0523 7.14156 28.617 7.52846 28.214ZM2.65995 35.42L0.806045 34.7429C0.499748 35.4361 0.161209 36.2422 0 36.6775L1.8539 37.3545C2.06348 36.8064 2.40202 36.0165 2.65995 35.42ZM14.3476 39.9661C14.3798 40.8205 14.4605 41.5137 14.5411 41.9974L16.4756 42.6906C16.3305 42.0618 16.1854 41.3525 16.0887 40.5948L14.3476 39.9661Z" fill="#CC0000"/>
</svg>
