<svg width="64" height="64" viewBox="0 0 64 64" fill="none" xmlns="http://www.w3.org/2000/svg">
<g clip-path="url(#clip0_135_841)">
<path d="M49.3669 42.0659L12.9866 63.6683L60.0922 60.4719L63.7202 12.9733L49.3669 42.0659Z" fill="url(#paint0_linear_135_841)"/>
<path d="M60.1693 60.4394L56.1205 32.4949L45.0923 47.0573L60.1693 60.4394Z" fill="url(#paint1_linear_135_841)"/>
<path d="M60.224 60.4394L30.5625 58.111L13.1442 63.6076L60.224 60.4394Z" fill="url(#paint2_linear_135_841)"/>
<path d="M13.186 63.6137L20.5958 39.3387L4.29028 42.8252L13.186 63.6137Z" fill="url(#paint3_linear_135_841)"/>
<path d="M45.0894 47.1377L38.2714 20.4313L18.7594 38.7212L45.0894 47.1377Z" fill="url(#paint4_linear_135_841)"/>
<path d="M62.1733 20.8076L43.7291 5.74347L38.593 22.3481L62.1733 20.8076Z" fill="url(#paint5_linear_135_841)"/>
<path d="M53.5477 0.372638L42.6999 6.36741L35.8561 0.292236L53.5477 0.372638Z" fill="url(#paint6_linear_135_841)"/>
<path d="M0 50.968L4.54432 42.6802L0.868342 32.8068L0 50.968Z" fill="url(#paint7_linear_135_841)"/>
<path d="M0.623901 32.4949L4.32239 42.9857L20.3931 39.3802L38.7409 22.3285L43.9188 5.88178L35.7657 0.125L21.9044 5.31254C17.5373 9.37445 9.0629 17.4114 8.75737 17.5626C8.45506 17.717 3.16139 27.7222 0.623901 32.4949Z" fill="white"/>
<path d="M13.6104 13.6486C23.0754 4.2641 35.2772 -1.28043 39.9598 3.44399C44.6395 8.16842 39.6768 19.6498 30.2118 29.0311C20.7469 38.4124 8.69626 44.2625 4.01686 39.5381C-0.665751 34.8169 4.14551 23.0299 13.6104 13.6486Z" fill="url(#paint8_linear_135_841)"/>
<path d="M13.1859 63.604L20.5379 39.2518L44.9544 47.0959C36.1262 55.374 26.3075 62.3722 13.1859 63.604Z" fill="url(#paint9_linear_135_841)"/>
<path d="M38.7731 22.2806L45.0412 47.1087C52.4157 39.3547 59.0344 31.0186 62.2759 20.7079L38.7731 22.2806Z" fill="url(#paint10_linear_135_841)"/>
<path d="M62.2119 20.8333C64.7205 13.2627 65.2994 2.40198 53.4703 0.385498L43.7642 5.7467L62.2119 20.8333Z" fill="url(#paint11_linear_135_841)"/>
<path d="M0 50.8587C0.347337 63.3535 9.36201 63.5397 13.202 63.6494L4.33206 42.9343L0 50.8587Z" fill="#9E1209"/>
<path d="M38.8081 22.3192C44.4748 25.8022 55.8955 32.7972 56.127 32.9258C56.4869 33.1284 61.0508 25.2297 62.0864 20.7658L38.8081 22.3192Z" fill="url(#paint12_radial_135_841)"/>
<path d="M20.5282 39.2518L30.3565 58.2138C36.168 55.0621 40.7187 51.2221 44.8868 47.1087L20.5282 39.2518Z" fill="url(#paint13_radial_135_841)"/>
<path d="M4.29344 42.96L2.90088 59.5421C5.52842 63.1312 9.14329 63.4432 12.9351 63.1634C10.1917 56.3356 4.71153 42.6834 4.29344 42.96Z" fill="url(#paint14_linear_135_841)"/>
<path d="M43.7065 5.7885L63.2314 8.5286C62.1894 4.11292 58.9894 1.26347 53.5349 0.37262L43.7065 5.7885Z" fill="url(#paint15_linear_135_841)"/>
</g>
<defs>
<linearGradient id="paint0_linear_135_841" x1="4312.68" y1="5660.37" x2="2969.99" y2="3286.17" gradientUnits="userSpaceOnUse">
<stop stop-color="#FB7655"/>
<stop offset="0.41" stop-color="#E42B1E"/>
<stop offset="0.99" stop-color="#990000"/>
<stop offset="1" stop-color="#990000"/>
</linearGradient>
<linearGradient id="paint1_linear_135_841" x1="1803.84" y1="1734.05" x2="-83.6539" y2="1365.34" gradientUnits="userSpaceOnUse">
<stop stop-color="#871101"/>
<stop offset="0.99" stop-color="#911209"/>
<stop offset="1" stop-color="#911209"/>
</linearGradient>
<linearGradient id="paint2_linear_135_841" x1="3580.59" y1="1263.66" x2="3556.28" y2="66.448" gradientUnits="userSpaceOnUse">
<stop stop-color="#871101"/>
<stop offset="0.99" stop-color="#911209"/>
<stop offset="1" stop-color="#911209"/>
</linearGradient>
<linearGradient id="paint3_linear_135_841" x1="819.769" y1="214.956" x2="1380.97" y2="1860.55" gradientUnits="userSpaceOnUse">
<stop stop-color="white"/>
<stop offset="0.23" stop-color="#E57252"/>
<stop offset="0.46" stop-color="#DE3B20"/>
<stop offset="0.99" stop-color="#A60003"/>
<stop offset="1" stop-color="#A60003"/>
</linearGradient>
<linearGradient id="paint4_linear_135_841" x1="1234.53" y1="457.024" x2="1336.32" y2="2238.15" gradientUnits="userSpaceOnUse">
<stop stop-color="white"/>
<stop offset="0.23" stop-color="#E4714E"/>
<stop offset="0.56" stop-color="#BE1A0D"/>
<stop offset="0.99" stop-color="#A80D00"/>
<stop offset="1" stop-color="#A80D00"/>
</linearGradient>
<linearGradient id="paint5_linear_135_841" x1="910.247" y1="264.67" x2="1059.09" y2="1558.26" gradientUnits="userSpaceOnUse">
<stop stop-color="white"/>
<stop offset="0.18" stop-color="#E46342"/>
<stop offset="0.4" stop-color="#C82410"/>
<stop offset="0.99" stop-color="#A80D00"/>
<stop offset="1" stop-color="#A80D00"/>
</linearGradient>
<linearGradient id="paint6_linear_135_841" x1="276.615" y1="354.753" x2="486.47" y2="-535.083" gradientUnits="userSpaceOnUse">
<stop stop-color="white"/>
<stop offset="0.54" stop-color="#C81F11"/>
<stop offset="0.99" stop-color="#BF0905"/>
<stop offset="1" stop-color="#BF0905"/>
</linearGradient>
<linearGradient id="paint7_linear_135_841" x1="125.533" y1="416.636" x2="674.346" y2="760.663" gradientUnits="userSpaceOnUse">
<stop stop-color="white"/>
<stop offset="0.31" stop-color="#DE4024"/>
<stop offset="0.99" stop-color="#BF190B"/>
<stop offset="1" stop-color="#BF190B"/>
</linearGradient>
<linearGradient id="paint8_linear_135_841" x1="-814.987" y1="4829.95" x2="4116.74" y2="-255.707" gradientUnits="userSpaceOnUse">
<stop stop-color="#BD0012"/>
<stop offset="0.07" stop-color="white"/>
<stop offset="0.17" stop-color="white"/>
<stop offset="0.27" stop-color="#C82F1C"/>
<stop offset="0.33" stop-color="#820C01"/>
<stop offset="0.46" stop-color="#A31601"/>
<stop offset="0.72" stop-color="#B31301"/>
<stop offset="0.99" stop-color="#E82609"/>
<stop offset="1" stop-color="#E82609"/>
</linearGradient>
<linearGradient id="paint9_linear_135_841" x1="1880.92" y1="1627.13" x2="485.258" y2="1040.92" gradientUnits="userSpaceOnUse">
<stop stop-color="#8C0C01"/>
<stop offset="0.54" stop-color="#990C00"/>
<stop offset="0.99" stop-color="#A80D0E"/>
<stop offset="1" stop-color="#A80D0E"/>
</linearGradient>
<linearGradient id="paint10_linear_135_841" x1="1903" y1="1677.46" x2="465.381" y2="656.312" gradientUnits="userSpaceOnUse">
<stop stop-color="#7E110B"/>
<stop offset="0.99" stop-color="#9E0C00"/>
<stop offset="1" stop-color="#9E0C00"/>
</linearGradient>
<linearGradient id="paint11_linear_135_841" x1="1894.44" y1="1516.03" x2="1218.39" y2="829.729" gradientUnits="userSpaceOnUse">
<stop stop-color="#79130D"/>
<stop offset="0.99" stop-color="#9E120B"/>
<stop offset="1" stop-color="#9E120B"/>
</linearGradient>
<radialGradient id="paint12_radial_135_841" cx="0" cy="0" r="1" gradientUnits="userSpaceOnUse" gradientTransform="translate(783.733 509.874) scale(1619.54 846.273)">
<stop stop-color="#A80D00"/>
<stop offset="0.99" stop-color="#7E0E08"/>
<stop offset="1" stop-color="#7E0E08"/>
</radialGradient>
<radialGradient id="paint13_radial_135_841" cx="0" cy="0" r="1" gradientUnits="userSpaceOnUse" gradientTransform="translate(350.572 814.038) scale(2152.96 1675.98)">
<stop stop-color="#A30C00"/>
<stop offset="0.99" stop-color="#800E08"/>
<stop offset="1" stop-color="#800E08"/>
</radialGradient>
<linearGradient id="paint14_linear_135_841" x1="570.536" y1="2106.35" x2="-641.586" y2="1100.19" gradientUnits="userSpaceOnUse">
<stop stop-color="#8B2114"/>
<stop offset="0.43" stop-color="#9E100A"/>
<stop offset="0.99" stop-color="#B3100C"/>
<stop offset="1" stop-color="#B3100C"/>
</linearGradient>
<linearGradient id="paint15_linear_135_841" x1="646.435" y1="290.717" x2="990.49" y2="1161.07" gradientUnits="userSpaceOnUse">
<stop stop-color="#B31000"/>
<stop offset="0.44" stop-color="#910F08"/>
<stop offset="0.99" stop-color="#791C12"/>
<stop offset="1" stop-color="#791C12"/>
</linearGradient>
<clipPath id="clip0_135_841">
<rect width="64" height="64" fill="white"/>
</clipPath>
</defs>
</svg>
