<svg width="64" height="64" viewBox="0 0 64 64" fill="none" xmlns="http://www.w3.org/2000/svg">
<path d="M55.2065 8.45855C49.2703 -0.037795 37.5461 -2.55614 29.069 2.84489L14.1812 12.3336C10.1145 14.8921 7.31341 19.045 6.46482 23.7739C5.75463 27.7135 6.37884 31.7774 8.23862 35.3222C6.96425 37.2553 6.09507 39.4268 5.68362 41.7053C4.82683 46.5251 5.9476 51.4869 8.79292 55.4704C14.7304 63.9676 26.4546 66.4848 34.9304 61.0841L49.8183 51.5954C53.8853 49.0372 56.6864 44.8842 57.5347 40.155C58.2447 36.2155 57.621 32.1517 55.7622 28.6065C57.0362 26.6734 57.905 24.5021 58.3161 22.2237C59.1734 17.4039 58.0526 12.4419 55.2068 8.45855" fill="#FF3E00"/>
<path d="M27.6132 56.2787C22.8129 57.5269 17.7436 55.6479 14.9166 51.5725C13.2047 49.1763 12.5303 46.1915 13.0458 43.2921C13.1322 42.8209 13.2511 42.3562 13.4017 41.9014L13.6821 41.0462L14.4451 41.6066C16.2071 42.9013 18.1773 43.8857 20.2706 44.5173L20.8241 44.6852L20.7731 45.2376C20.7055 46.0234 20.9183 46.8079 21.3738 47.4518C22.2246 48.6794 23.7508 49.2459 25.1965 48.8707C25.5202 48.7842 25.8287 48.6486 26.1113 48.4687L41.0039 38.9782C41.7407 38.5143 42.2485 37.7619 42.4031 36.9051C42.5575 36.0312 42.3543 35.1319 41.8393 34.4093C40.988 33.1814 39.4614 32.6147 38.0151 32.9896C37.6919 33.0761 37.3838 33.2116 37.1016 33.3913L31.4186 37.0141C30.4842 37.6082 29.4643 38.0561 28.3945 38.3421C23.5943 39.5901 18.5251 37.7111 15.6981 33.6358C13.9861 31.2397 13.3118 28.2548 13.8273 25.3554C14.3377 22.5109 16.0228 20.013 18.4692 18.4746L33.3606 8.98334C34.2955 8.3882 35.316 7.9398 36.3867 7.65374C41.1869 6.40568 46.2561 8.28467 49.083 12.36C50.795 14.7561 51.4693 17.7409 50.9539 20.6404C50.8671 21.1115 50.7482 21.5761 50.598 22.0311L50.3175 22.8862L49.555 22.3267C47.793 21.0313 45.8227 20.0465 43.729 19.4148L43.1755 19.2468L43.2265 18.6944C43.2936 17.9086 43.0808 17.1244 42.6259 16.4802C41.7751 15.2526 40.2488 14.6861 38.8031 15.0614C38.4795 15.1479 38.171 15.2834 37.8884 15.4634L22.9957 24.9542C22.259 25.4178 21.7515 26.1701 21.5976 27.0268C21.4423 27.9007 21.6451 28.8002 22.1604 29.5229C23.0117 30.7507 24.5383 31.3175 25.9846 30.9425C26.3081 30.8559 26.6166 30.7203 26.8992 30.5405L32.5814 26.9192C33.5155 26.3242 34.5353 25.876 35.6052 25.5901C40.4054 24.342 45.4746 26.221 48.3016 30.2964C50.0136 32.6925 50.6879 35.6773 50.1724 38.5767C49.6617 41.4214 47.9767 43.9195 45.5305 45.4587L30.639 54.9491C29.7042 55.5442 28.6836 55.9926 27.6129 56.2787" fill="white"/>
</svg>
