<svg width="49" height="48" viewBox="0 0 49 48" fill="none" xmlns="http://www.w3.org/2000/svg">
<g clip-path="url(#clip0_30_424)">
<path d="M48.2653 23.9406C48.2653 37.1618 37.5468 47.8806 24.3247 47.8806C11.1024 47.8806 0.384003 37.1618 0.384003 23.9406C0.384003 10.7185 11.1025 0 24.3247 0C37.547 0 48.2653 10.7185 48.2653 23.9406Z" fill="#DD4814"/>
<path d="M8.04584 20.7436C6.2797 20.7436 4.84885 22.1746 4.84885 23.9406C4.84885 25.7057 6.2797 27.1366 8.04584 27.1366C9.81101 27.1366 11.2419 25.7057 11.2419 23.9406C11.2419 22.1746 9.81101 20.7436 8.04584 20.7436ZM30.8674 35.2708C29.3386 36.1538 28.8144 38.1076 29.6975 39.6356C30.5795 41.1644 32.5333 41.6885 34.0621 40.8055C35.5908 39.9235 36.115 37.9697 35.232 36.4407C34.35 34.9129 32.3951 34.3888 30.8674 35.2708ZM14.9887 23.9406C14.9887 20.7819 16.5576 17.9913 18.9583 16.3014L16.6215 12.3875C13.825 14.2568 11.7442 17.1133 10.8795 20.4588C11.8885 21.2821 12.5343 22.5355 12.5343 23.9404C12.5343 25.3445 11.8885 26.5979 10.8795 27.4212C11.7431 30.7677 13.8239 33.6243 16.6215 35.4937L18.9583 31.5788C16.5576 29.8899 14.9887 27.0994 14.9887 23.9406ZM24.3247 14.6035C29.2022 14.6035 33.2038 18.3432 33.6238 23.1123L38.1783 23.0452C37.9542 19.5243 36.4161 16.3635 34.0527 14.0392C32.8374 14.4984 31.4335 14.4281 30.2202 13.7287C29.0047 13.0273 28.2426 11.844 28.0343 10.5596C26.853 10.2336 25.6098 10.0551 24.3245 10.0551C22.1149 10.0551 20.0259 10.5741 18.171 11.4921L20.392 15.472C21.5868 14.916 22.9197 14.6035 24.3247 14.6035ZM24.3247 33.2767C22.9197 33.2767 21.5868 32.964 20.3921 32.4081L18.1712 36.3879C20.026 37.3071 22.1151 37.8262 24.3247 37.8262C25.61 37.8262 26.8533 37.6476 28.0344 37.3206C28.2427 36.0362 29.0051 34.854 30.2203 34.1514C31.4345 33.4508 32.8375 33.3818 34.0528 33.841C36.4162 31.5167 37.9543 28.3559 38.1784 24.835L33.6228 24.7678C33.2038 29.5383 29.2023 33.2767 24.3247 33.2767ZM30.8663 12.6084C32.3951 13.4912 34.349 12.9683 35.231 11.4395C36.114 9.91065 35.5911 7.95673 34.0621 7.07358C32.5333 6.19156 30.5795 6.71562 29.6962 8.24444C28.8144 9.77242 29.3384 11.7263 30.8663 12.6084Z" fill="white"/>
</g>
<defs>
<clipPath id="clip0_30_424">
<rect width="48" height="48" fill="white" transform="translate(0.333328)"/>
</clipPath>
</defs>
</svg>
