<svg width="64" height="64" viewBox="0 0 64 64" fill="none" xmlns="http://www.w3.org/2000/svg">
<g clip-path="url(#clip0_135_867)">
<mask id="mask0_135_867" style="mask-type:luminance" maskUnits="userSpaceOnUse" x="0" y="0" width="64" height="64">
<path d="M63.1292 0H0.435303V64H63.1292V0Z" fill="white"/>
</mask>
<g mask="url(#mask0_135_867)">
<path d="M63.0403 31.9208C63.0403 49.5491 49.0406 63.8408 31.7709 63.8408C14.501 63.8408 0.501465 49.5491 0.501465 31.9208C0.501465 14.2913 14.5011 0 31.7709 0C49.0409 0 63.0403 14.2913 63.0403 31.9208Z" fill="#DD4814"/>
<path d="M10.5087 27.6582C8.20187 27.6582 6.33301 29.5662 6.33301 31.9208C6.33301 34.2743 8.20187 36.1822 10.5087 36.1822C12.8142 36.1822 14.6831 34.2743 14.6831 31.9208C14.6831 29.5662 12.8142 27.6582 10.5087 27.6582ZM40.3164 47.0278C38.3196 48.2051 37.635 50.8102 38.7884 52.8475C39.9404 54.8859 42.4923 55.5847 44.4891 54.4074C46.4858 53.2314 47.1704 50.6263 46.0171 48.5876C44.8651 46.5506 42.3118 45.8518 40.3164 47.0278ZM19.5769 31.9208C19.5769 27.7092 21.6261 23.9884 24.7617 21.7352L21.7095 16.5167C18.057 19.0091 15.3392 22.8178 14.2098 27.2784C15.5277 28.3762 16.3711 30.0474 16.3711 31.9206C16.3711 33.7927 15.5277 35.4639 14.2098 36.5616C15.3377 41.0236 18.0555 44.8324 21.7095 47.325L24.7617 42.1051C21.6261 39.8532 19.5769 36.1326 19.5769 31.9208ZM31.7709 19.4714C38.1415 19.4714 43.368 24.4576 43.9166 30.8164L49.8653 30.727C49.5726 26.0324 47.5637 21.818 44.4768 18.719C42.8895 19.3312 41.0558 19.2375 39.4711 18.305C37.8835 17.3698 36.8881 15.792 36.616 14.0795C35.0731 13.6448 33.4493 13.4068 31.7706 13.4068C28.8846 13.4068 26.1561 14.0988 23.7334 15.3228L26.6343 20.6294C28.1948 19.888 29.9357 19.4714 31.7709 19.4714ZM31.7709 44.369C29.9357 44.369 28.1948 43.952 26.6344 43.2108L23.7336 48.5172C26.1562 49.7428 28.8848 50.435 31.7709 50.435C33.4496 50.435 35.0735 50.1968 36.6162 49.7608C36.8882 48.0483 37.884 46.472 39.4712 45.5352C41.0571 44.6011 42.8896 44.5091 44.4769 45.1214C47.5638 42.0223 49.5728 37.8079 49.8655 33.1134L43.9153 33.0238C43.368 39.3844 38.1416 44.369 31.7709 44.369ZM40.315 16.8112C42.3118 17.9883 44.8638 17.2911 46.0158 15.2527C47.1691 13.2142 46.4861 10.609 44.4891 9.43149C42.4923 8.25546 39.9404 8.95421 38.7867 10.9926C37.6349 13.0299 38.3194 15.6351 40.315 16.8112Z" fill="white"/>
</g>
</g>
<defs>
<clipPath id="clip0_135_867">
<rect width="64" height="64" fill="white"/>
</clipPath>
</defs>
</svg>
