<svg width="64" height="64" viewBox="0 0 64 64" fill="none" xmlns="http://www.w3.org/2000/svg">
<path d="M58.02 10.06L46.488 4.50798C45.8367 4.19397 45.1039 4.09035 44.3912 4.21148C43.6784 4.3326 43.021 4.67247 42.51 5.18398L4.76 39.6C4.30198 40.0156 4.02781 40.5961 3.99781 41.2138C3.9678 41.8316 4.18441 42.4359 4.6 42.894C4.65 42.948 4.7 43 4.754 43.048L7.836 45.848C8.23872 46.2145 8.75711 46.4284 9.30113 46.4525C9.84514 46.4766 10.3804 46.3094 10.814 45.98L56.284 11.5C56.6274 11.2394 57.0368 11.0798 57.466 11.0392C57.8953 10.9986 58.3273 11.0787 58.7135 11.2703C59.0997 11.462 59.4247 11.7576 59.652 12.124C59.8793 12.4903 59.9998 12.9128 60 13.344V13.21C60 12.5518 59.8141 11.907 59.4638 11.3497C59.1136 10.7924 58.6131 10.3454 58.02 10.06Z" fill="#0065A9"/>
<path d="M58.02 53.94L46.488 59.494C45.8366 59.8071 45.104 59.9102 44.3914 59.7891C43.6788 59.6681 43.0214 59.3287 42.51 58.818L4.76 24.4C4.30198 23.9844 4.02781 23.4039 3.99781 22.7861C3.9678 22.1684 4.18441 21.564 4.6 21.106C4.65 21.052 4.7 21 4.754 20.952L7.836 18.152C8.23913 17.7839 8.75871 17.5691 9.30406 17.5449C9.84942 17.5208 10.3859 17.6889 10.82 18.02L56.284 52.5C56.6274 52.7606 57.0368 52.9202 57.466 52.9608C57.8953 53.0013 58.3273 52.9213 58.7135 52.7296C59.0997 52.538 59.4247 52.2424 59.652 51.876C59.8793 51.5096 59.9998 51.0871 60 50.656V50.8C59.9978 51.4564 59.811 52.099 59.4609 52.6543C59.1107 53.2096 58.6114 53.6551 58.02 53.94Z" fill="#007ACC"/>
<path d="M46.488 59.494C45.8366 59.8071 45.104 59.9103 44.3914 59.7892C43.6788 59.6681 43.0215 59.3287 42.51 58.818C42.7972 59.1015 43.1617 59.2939 43.5578 59.3711C43.9539 59.4483 44.3639 59.4069 44.7366 59.2521C45.1092 59.0972 45.4279 58.8359 45.6526 58.5007C45.8774 58.1656 45.9982 57.7715 46 57.368V6.632C46.0004 6.22658 45.8803 5.83018 45.6552 5.49301C45.4301 5.15585 45.1099 4.89309 44.7353 4.73803C44.3607 4.58296 43.9485 4.54257 43.551 4.62196C43.1534 4.70135 42.7883 4.89696 42.502 5.184C43.0131 4.67268 43.6704 4.33279 44.383 4.21133C45.0957 4.08987 45.8284 4.19284 46.48 4.506L58.01 10.05C58.605 10.334 59.1075 10.7804 59.4596 11.3378C59.8117 11.8952 59.9991 12.5407 60 13.2V50.8C60.0002 51.4588 59.8142 52.1041 59.4635 52.6618C59.1129 53.2195 58.6118 53.6667 58.018 53.952L46.488 59.494Z" fill="#1F9CF0"/>
</svg>
