<?xml version="1.0" standalone="no"?>
<!DOCTYPE svg PUBLIC "-//W3C//DTD SVG 20010904//EN"
 "http://www.w3.org/TR/2001/REC-SVG-20010904/DTD/svg10.dtd">
<svg version="1.0" xmlns="http://www.w3.org/2000/svg"
 width="700.000000pt" height="700.000000pt" viewBox="0 0 700.000000 700.000000"
 preserveAspectRatio="xMidYMid meet">
<metadata>
Created by potrace 1.14, written by Peter Selinger 2001-2017
</metadata>
<g transform="translate(0.000000,700.000000) scale(0.100000,-0.100000)"
fill="#000000" stroke="none">
<path d="M3375 6949 c-166 -41 -341 -84 -428 -104 -10 -2 -26 -6 -35 -9 -9 -3
-28 -7 -42 -10 -14 -3 -83 -19 -155 -36 -588 -143 -706 -171 -740 -177 -44 -7
-91 -39 -103 -71 -12 -28 -19 -85 -28 -217 -8 -126 -13 -205 -19 -275 -5 -63
-10 -131 -20 -270 -3 -36 -7 -92 -10 -125 -2 -33 -7 -94 -10 -135 -3 -41 -8
-106 -11 -145 -8 -113 -13 -175 -19 -260 -13 -182 -16 -223 -20 -275 -5 -55
-10 -131 -20 -270 -3 -41 -7 -100 -10 -130 -2 -30 -7 -93 -10 -140 -3 -47 -8
-110 -10 -140 -5 -61 -12 -163 -20 -272 -3 -40 -8 -98 -10 -128 -2 -30 -7 -89
-10 -130 -3 -41 -8 -100 -10 -130 -3 -30 -7 -93 -10 -140 -6 -91 -11 -154 -19
-265 -9 -111 -16 -205 -21 -280 -2 -38 -7 -101 -10 -140 -9 -107 -24 -303 -30
-395 -12 -180 -52 -305 -140 -438 -123 -187 -315 -326 -647 -467 -54 -22 -114
-54 -134 -70 l-36 -29 7 -80 c3 -44 8 -83 10 -86 1 -3 6 -32 9 -65 4 -33 9
-71 11 -85 5 -30 12 -77 20 -145 4 -27 8 -61 10 -75 2 -14 9 -61 15 -105 6
-44 12 -91 14 -105 7 -43 18 -124 22 -155 1 -16 5 -46 8 -65 2 -19 8 -57 11
-85 4 -27 19 -74 34 -105 33 -70 80 -95 201 -108 93 -10 547 -8 595 2 17 4 64
13 106 22 437 86 864 409 1172 884 163 251 311 602 401 950 36 138 81 371 91
470 3 30 7 66 10 80 4 24 13 143 21 260 3 54 11 143 19 210 2 19 7 67 10 105
6 68 8 89 20 220 3 33 8 83 11 110 11 116 15 162 19 190 2 17 7 59 10 95 12
121 14 145 19 190 3 25 8 79 12 120 3 41 8 82 9 90 1 8 6 58 10 110 4 52 8
109 10 125 2 17 7 64 10 105 3 41 8 91 10 110 3 19 7 67 10 105 3 39 8 86 10
105 3 19 7 64 10 100 3 36 7 85 10 110 3 25 7 68 9 95 6 61 18 191 21 225 2
14 6 59 9 100 9 100 15 166 21 220 3 25 7 74 10 110 3 36 7 85 10 110 6 58 13
129 20 210 3 36 8 88 11 115 3 28 7 70 9 95 2 25 6 72 9 105 4 33 8 87 11 120
3 33 8 76 10 95 3 19 7 60 9 90 3 30 8 89 12 130 17 170 3 260 -44 284 -47 23
-112 16 -317 -35z"/>
<path d="M6238 6995 c-2 -2 -15 -6 -28 -9 -14 -2 -83 -18 -155 -36 -71 -17
-175 -42 -230 -55 -55 -13 -176 -42 -270 -65 -93 -23 -177 -43 -185 -45 -31
-7 -293 -69 -528 -126 -134 -33 -254 -66 -267 -75 -50 -33 -54 -66 -80 -669
-3 -66 -8 -156 -10 -200 -2 -44 -7 -141 -10 -215 -3 -74 -8 -171 -10 -215 -3
-44 -7 -127 -10 -185 -13 -282 -16 -341 -20 -415 -5 -91 -13 -259 -20 -420 -3
-60 -7 -164 -11 -230 -3 -66 -7 -158 -9 -205 -7 -149 -15 -322 -20 -405 -3
-44 -7 -132 -10 -195 -3 -63 -7 -155 -10 -205 -2 -49 -7 -146 -10 -215 -3 -69
-8 -161 -10 -205 -2 -44 -7 -132 -10 -195 -3 -63 -7 -155 -10 -205 -2 -49 -7
-142 -10 -205 -5 -120 -13 -278 -20 -415 -3 -44 -7 -156 -10 -250 -3 -93 -7
-192 -10 -220 -6 -71 -19 -400 -18 -461 1 -51 21 -104 50 -132 27 -27 106 -50
163 -47 32 2 171 38 330 84 151 45 474 140 717 212 488 143 506 149 546 187
68 63 91 154 102 392 7 161 14 314 20 430 3 58 7 152 10 210 3 58 7 150 10
205 2 55 7 150 10 210 3 61 7 153 10 205 2 52 7 147 10 210 3 63 7 160 10 215
3 55 7 152 10 215 3 63 7 156 10 205 2 50 7 149 10 220 3 72 8 162 10 200 2
39 7 131 10 205 3 74 8 171 10 215 3 44 7 141 10 215 3 74 8 167 10 205 2 39
7 131 10 205 3 74 8 169 10 210 2 41 6 140 10 220 3 80 8 177 10 215 4 84 13
264 20 400 10 213 16 343 20 415 9 168 19 408 18 450 0 123 -31 167 -117 168
-30 0 -56 -2 -58 -3z"/>
</g>
</svg>
