<svg width="2560" height="2560" viewBox="0 0 2560 2560" fill="none" xmlns="http://www.w3.org/2000/svg">
<path d="M1650.57 253.061C1652.75 214.966 1655.47 188.299 1658.73 173.061C1663.09 156.735 1676.14 146.395 1697.91 142.041L2262.74 6.53061C2279.07 2.17687 2293.22 0 2305.19 0C2320.42 0 2330.76 4.89796 2336.21 14.6939C2342.73 24.4898 2346 42.9932 2346 70.2041L2249.68 2089.8C2248.6 2114.83 2246.42 2135.51 2243.15 2151.84C2239.89 2168.16 2234.99 2181.77 2228.46 2192.65C2223.02 2202.45 2215.4 2210.61 2205.61 2217.14C2195.81 2222.58 2184.39 2227.48 2171.33 2231.84L1660.36 2382.04C1647.3 2385.31 1634.79 2386.94 1622.82 2386.94C1604.32 2386.94 1587.99 2381.5 1573.84 2370.61C1559.7 2360.82 1552.62 2341.77 1552.62 2313.47C1552.62 2313.47 1552.62 2311.84 1552.62 2308.57C1552.62 2305.31 1553.17 2295.51 1554.25 2279.18C1555.34 2261.77 1556.43 2235.65 1557.52 2200.82C1559.7 2164.9 1561.87 2114.83 1564.05 2050.61C1567.31 1985.31 1571.12 1903.13 1575.48 1804.08C1580.92 1705.03 1586.9 1583.13 1593.43 1438.37C1601.05 1293.61 1609.21 1123.81 1617.92 928.98C1627.72 734.15 1638.6 508.844 1650.57 253.061Z" fill="#111827"/>
<path d="M674.355 253.061C675.444 233.469 676.532 217.143 677.62 204.082C678.708 191.02 680.341 180.136 682.518 171.429C685.783 162.721 690.136 156.19 695.577 151.837C701.019 147.483 709.725 144.218 721.697 142.041L1286.53 6.53061C1300.68 2.17687 1314.83 0 1328.97 0C1344.21 0 1354.55 4.89796 1359.99 14.6939C1366.52 24.4898 1369.79 42.9932 1369.79 70.2041L1291.43 907.755C1284.9 980.68 1278.37 1051.43 1271.84 1120C1265.31 1188.57 1258.78 1252.24 1252.25 1311.02C1246.81 1368.71 1241.91 1420.41 1237.56 1466.12C1233.2 1510.75 1229.94 1546.67 1227.76 1573.88L1224.5 1621.22C1215.79 1745.31 1191.85 1863.95 1152.67 1977.14C1114.58 2090.34 1063.43 2190.48 999.216 2277.55C936.094 2363.54 860.456 2432.11 772.303 2483.27C685.238 2534.42 588.379 2560 481.724 2560C427.309 2560 386.497 2558.91 359.289 2556.73C333.17 2554.56 314.125 2550.75 302.153 2545.31C291.27 2540.95 284.196 2534.42 280.931 2525.71C278.754 2518.1 274.401 2508.3 267.871 2496.33L214 2099.59C214 2097.42 217.265 2093.06 223.795 2086.53C231.413 2078.91 237.399 2074.01 241.752 2071.84C280.931 2056.6 319.566 2039.18 357.657 2019.59C395.748 2000 429.485 1977.14 458.87 1951.02C489.342 1923.81 513.829 1892.24 532.331 1856.33C551.92 1819.32 562.803 1776.33 564.98 1727.35L674.355 253.061Z" fill="#111827"/>
</svg>
