<svg width="640" height="640" viewBox="0 0 640 640" fill="none" xmlns="http://www.w3.org/2000/svg">
<path d="M412.643 63.2653C413.188 53.7415 413.868 47.0748 414.683 43.2653C415.773 39.1838 419.035 36.5988 424.478 35.5103L565.685 1.63265C569.768 0.544217 573.305 0 576.298 0C580.105 0 582.69 1.22449 584.053 3.67348C585.683 6.12245 586.5 10.7483 586.5 17.551L562.42 522.45C562.15 528.708 561.605 533.878 560.788 537.96C559.973 542.04 558.748 545.442 557.115 548.162C555.755 550.612 553.85 552.652 551.403 554.285C548.953 555.645 546.098 556.87 542.833 557.96L415.09 595.51C411.825 596.328 408.698 596.735 405.705 596.735C401.08 596.735 396.998 595.375 393.46 592.653C389.925 590.205 388.155 585.442 388.155 578.367C388.155 578.367 388.155 577.96 388.155 577.143C388.155 576.328 388.293 573.877 388.563 569.795C388.835 565.442 389.108 558.913 389.38 550.205C389.925 541.225 390.468 528.708 391.013 512.653C391.828 496.328 392.78 475.782 393.87 451.02C395.23 426.257 396.725 395.782 398.358 359.592C400.263 323.403 402.303 280.952 404.48 232.245C406.93 183.537 409.65 127.211 412.643 63.2653Z" fill="#111827"/>
<path d="M168.589 63.2653C168.861 58.3673 169.133 54.2858 169.405 51.0205C169.677 47.755 170.085 45.034 170.63 42.8573C171.446 40.6803 172.534 39.0475 173.894 37.9593C175.255 36.8708 177.431 36.0545 180.424 35.5103L321.633 1.63265C325.17 0.544217 328.707 0 332.242 0C336.052 0 338.637 1.22449 339.997 3.67348C341.63 6.12245 342.448 10.7483 342.448 17.551L322.858 226.939C321.225 245.17 319.592 262.858 317.96 280C316.327 297.142 314.695 313.06 313.062 327.755C311.702 342.178 310.478 355.102 309.39 366.53C308.3 377.687 307.485 386.668 306.94 393.47L306.125 405.305C303.947 436.327 297.963 465.988 288.168 494.285C278.645 522.585 265.858 547.62 249.804 569.388C234.024 590.885 215.114 608.028 193.076 620.818C171.309 633.605 147.095 640 120.431 640C106.827 640 96.6243 639.727 89.8223 639.182C83.2925 638.64 78.5313 637.688 75.5383 636.328C72.8175 635.238 71.049 633.605 70.2327 631.427C69.6885 629.525 68.6003 627.075 66.9678 624.083L53.5 524.898C53.5 524.355 54.3162 523.265 55.9487 521.633C57.8532 519.728 59.3497 518.503 60.438 517.96C70.2327 514.15 79.8915 509.795 89.4143 504.897C98.937 500 107.371 494.285 114.717 487.755C122.335 480.953 128.457 473.06 133.083 464.082C137.98 454.83 140.701 444.082 141.245 431.837L168.589 63.2653Z" fill="#111827"/>
</svg>
